<svg xmlns="http://www.w3.org/2000/svg" viewBox="0 0 980 260" role="img"><defs><marker id="a" markerWidth="8" markerHeight="8" refX="6" refY="3" orient="auto"><path d="M0,0 L0,6 L6,3 z" fill="#1f5f8b"/></marker></defs><style>text{font:16px system-ui,sans-serif;fill:#172033}.s{fill:#f5f7fb;stroke:#1f5f8b;stroke-width:1.5}.l{stroke:#1f5f8b;stroke-width:2;marker-end:url(#a)}</style><rect class="s" x="40" y="45" width="160" height="56" rx="8"/><text x="120" y="78" text-anchor="middle">inventory.xlsx</text><rect class="s" x="40" y="150" width="160" height="56" rx="8"/><text x="120" y="183" text-anchor="middle">revenue.xlsx</text><line class="l" x1="205" y1="73" x2="310" y2="128"/><line class="l" x1="205" y1="178" x2="310" y2="145"/><rect class="s" x="320" y="100" width="180" height="70" rx="8"/><text x="410" y="129" text-anchor="middle">資料讀取與正規化</text><text x="410" y="151" text-anchor="middle">build_pipeline_context</text><line class="l" x1="500" y1="135" x2="590" y2="135"/><rect class="s" x="600" y="100" width="150" height="70" rx="8"/><text x="675" y="129" text-anchor="middle">分析資料表</text><text x="675" y="151" text-anchor="middle">PipelineContext</text><line class="l" x1="750" y1="135" x2="820" y2="135"/><rect class="s" x="830" y="100" width="120" height="70" rx="8"/><text x="890" y="128" text-anchor="middle">Analysis</text><text x="890" y="150" text-anchor="middle">Tools</text></svg>