<svg xmlns="http://www.w3.org/2000/svg" viewBox="0 0 1040 360" role="img"><defs><marker id="a" markerWidth="8" markerHeight="8" refX="6" refY="3" orient="auto"><path d="M0,0 L0,6 L6,3 z" fill="#1f5f8b"/></marker></defs><style>text{font:15px system-ui,sans-serif;fill:#172033}.b{fill:#fff;stroke:#1f5f8b;stroke-width:1.5}.g{fill:#f5f7fb}.l{stroke:#1f5f8b;stroke-width:2;marker-end:url(#a)}</style><rect class="b" x="35" y="145" width="110" height="55" rx="8"/><text x="90" y="178" text-anchor="middle">使用者</text><line class="l" x1="145" y1="172" x2="230" y2="172"/><rect class="b g" x="240" y="135" width="130" height="75" rx="8"/><text x="305" y="165" text-anchor="middle">Frontend</text><text x="305" y="188" text-anchor="middle">Dashboard</text><line class="l" x1="370" y1="172" x2="450" y2="172"/><rect class="b" x="460" y="135" width="130" height="75" rx="8"/><text x="525" y="165" text-anchor="middle">Backend API</text><text x="525" y="188" text-anchor="middle">demo_web.py</text><line class="l" x1="590" y1="172" x2="670" y2="172"/><rect class="b g" x="680" y="135" width="150" height="75" rx="8"/><text x="755" y="162" text-anchor="middle">Agent</text><text x="755" y="186" text-anchor="middle">規劃與驗證</text><line class="l" x1="830" y1="172" x2="900" y2="172"/><rect class="b" x="910" y="135" width="100" height="75" rx="8"/><text x="960" y="165" text-anchor="middle">Tool</text><text x="960" y="188" text-anchor="middle">計算</text><rect class="b" x="680" y="260" width="150" height="55" rx="8"/><text x="755" y="293" text-anchor="middle">Evidence / Replan</text><line class="l" x1="755" y1="210" x2="755" y2="260"/><rect class="b" x="900" y="260" width="110" height="55" rx="8"/><text x="955" y="293" text-anchor="middle">資料表</text><line class="l" x1="960" y1="210" x2="955" y2="260"/><rect class="b" x="460" y="35" width="150" height="55" rx="8"/><text x="535" y="68" text-anchor="middle">Proactive Workflow</text><line class="l" x1="535" y1="90" x2="535" y2="135"/><rect class="b" x="700" y="35" width="130" height="55" rx="8"/><text x="765" y="68" text-anchor="middle">MCP 入口</text><line class="l" x1="765" y1="90" x2="765" y2="135"/></svg>